<svg width="238" height="231" viewBox="0 0 238 231" fill="none" xmlns="http://www.w3.org/2000/svg">
<rect width="238" height="231" rx="33" fill="url(#paint0_linear_48_36)"/>
<path d="M213.49 207.615C215.43 205.66 215.425 202.504 213.477 200.557L33.4559 20.5355C31.5033 18.5829 28.3374 18.5829 26.3848 20.5355L24.9602 21.9602L23.5355 23.3848C21.5829 25.3374 21.5829 28.5033 23.5355 30.4559L70.7201 77.6405C73.3103 80.2307 72.3279 84.635 68.8825 85.8789L24.6436 101.851C23.3087 102.357 22.1594 103.258 21.3484 104.432C20.5374 105.607 20.1031 107.001 20.1031 108.429C20.1031 109.857 20.5374 111.251 21.3484 112.426C22.1594 113.601 23.3087 114.501 24.6436 115.007L90.1968 141.229C91.4673 141.737 92.4741 142.744 92.9823 144.014L119.204 209.568C119.711 210.844 120.581 211.944 121.706 212.731C122.832 213.519 124.163 213.96 125.536 214C126.958 213.971 128.337 213.512 129.493 212.683C130.648 211.854 131.525 210.694 132.009 209.356L148.175 165.078C149.429 161.645 153.823 160.673 156.408 163.258L203.602 210.452C205.559 212.409 208.735 212.404 210.685 210.439L213.49 207.615ZM59.0137 113.457C54.7429 111.72 54.8982 105.62 59.2518 104.103L84.1854 95.4156C85.9828 94.7893 87.9798 95.2379 89.3368 96.5726L104.985 111.965C106.966 113.912 106.979 117.101 105.015 119.065L98.05 126.03C96.6284 127.451 94.4936 127.883 92.6312 127.126L59.0137 113.457ZM129.943 174.616C128.42 178.986 122.29 179.12 120.577 174.822L107.125 141.073C106.385 139.217 106.822 137.099 108.234 135.686L114.935 128.985C116.899 127.021 120.088 127.034 122.035 129.015L137.427 144.663C138.762 146.02 139.211 148.017 138.584 149.815L129.943 174.616Z" fill="url(#paint1_linear_48_36)"/>
<path d="M116.04 83.5653L170.109 63.891L150.435 117.96L161.475 129L188.58 54.4785C189.036 53.2146 189.123 51.8469 188.83 50.5354C188.537 49.224 187.877 48.023 186.927 47.0728C185.977 46.1227 184.776 45.4627 183.465 45.17C182.153 44.8772 180.785 44.9639 179.521 45.4199L105 72.5251L116.04 83.5653Z" fill="url(#paint2_linear_48_36)"/>
<defs>
<linearGradient id="paint0_linear_48_36" x1="0" y1="0" x2="238" y2="231" gradientUnits="userSpaceOnUse">
<stop stop-color="#23023A"/>
<stop offset="0.591346" stop-color="#5C1190"/>
<stop offset="1" stop-color="#7816BC"/>
</linearGradient>
<linearGradient id="paint1_linear_48_36" x1="118.5" y1="17" x2="118.5" y2="214" gradientUnits="userSpaceOnUse">
<stop stop-color="#E4B8C5"/>
</linearGradient>
<linearGradient id="paint2_linear_48_36" x1="147" y1="45" x2="147" y2="129" gradientUnits="userSpaceOnUse">
<stop stop-color="#E4B8C5"/>
</linearGradient>
</defs>
</svg>
