<svg width="217" height="217" viewBox="0 0 217 217" fill="none" xmlns="http://www.w3.org/2000/svg">
<path d="M203.49 200.615C205.43 198.66 205.425 195.504 203.477 193.557L23.4559 13.5355C21.5033 11.5829 18.3374 11.5829 16.3848 13.5355L14.9602 14.9602L13.5355 16.3848C11.5829 18.3374 11.5829 21.5033 13.5355 23.4559L60.7201 70.6405C63.3103 73.2307 62.3279 77.635 58.8825 78.8789L14.6436 94.8507C13.3087 95.357 12.1594 96.2575 11.3484 97.4325C10.5374 98.6075 10.1031 100.001 10.1031 101.429C10.1031 102.857 10.5374 104.251 11.3484 105.426C12.1594 106.601 13.3087 107.501 14.6436 108.007L80.1968 134.229C81.4673 134.737 82.4741 135.744 82.9823 137.014L109.204 202.568C109.711 203.844 110.581 204.944 111.706 205.731C112.832 206.519 114.163 206.96 115.536 207C116.958 206.971 118.337 206.512 119.493 205.683C120.648 204.854 121.525 203.694 122.009 202.356L138.175 158.078C139.429 154.645 143.823 153.673 146.408 156.258L193.602 203.452C195.559 205.409 198.735 205.404 200.685 203.439L203.49 200.615ZM49.0137 106.457C44.7429 104.72 44.8982 98.6202 49.2518 97.1033L74.1854 88.4156C75.9828 87.7893 77.9798 88.2379 79.3368 89.5726L94.9854 104.965C96.9656 106.912 96.9788 110.101 95.0148 112.065L88.05 119.03C86.6284 120.451 84.4936 120.883 82.6312 120.126L49.0137 106.457ZM119.943 167.616C118.42 171.986 112.29 172.12 110.577 167.822L97.1251 134.073C96.3854 132.217 96.8215 130.099 98.2343 128.686L104.935 121.985C106.899 120.021 110.088 120.034 112.035 122.015L127.427 137.663C128.762 139.02 129.211 141.017 128.584 142.815L119.943 167.616Z" fill="url(#paint0_linear_48_39)"/>
<path d="M106.04 76.5653L160.109 56.891L140.435 110.96L151.475 122L178.58 47.4785C179.036 46.2146 179.123 44.8469 178.83 43.5354C178.537 42.224 177.877 41.023 176.927 40.0728C175.977 39.1227 174.776 38.4627 173.465 38.17C172.153 37.8772 170.785 37.9639 169.521 38.4199L95 65.5251L106.04 76.5653Z" fill="url(#paint1_linear_48_39)"/>
<defs>
<linearGradient id="paint0_linear_48_39" x1="108.5" y1="10" x2="108.5" y2="207" gradientUnits="userSpaceOnUse">
<stop stop-color="#E4B8C5"/>
</linearGradient>
<linearGradient id="paint1_linear_48_39" x1="137" y1="38" x2="137" y2="122" gradientUnits="userSpaceOnUse">
<stop stop-color="#E4B8C5"/>
</linearGradient>
</defs>
</svg>
